<?xml version="1.0" encoding="UTF-8" standalone="no"?>
<!-- Created with Inkscape (http://www.inkscape.org/) -->

<svg
   width="246.08873"
   height="82.890968"
   viewBox="0 0 65.110975 21.931569"
   version="1.1"
   id="svg1"
   xmlns:inkscape="http://www.inkscape.org/namespaces/inkscape"
   xmlns:sodipodi="http://sodipodi.sourceforge.net/DTD/sodipodi-0.dtd"
   xmlns="http://www.w3.org/2000/svg"
   xmlns:svg="http://www.w3.org/2000/svg">
  <sodipodi:namedview
     id="namedview1"
     pagecolor="#ffffff"
     bordercolor="#000000"
     borderopacity="0.25"
     inkscape:showpageshadow="2"
     inkscape:pageopacity="0.0"
     inkscape:pagecheckerboard="0"
     inkscape:deskcolor="#d1d1d1"
     inkscape:document-units="mm" />
  <defs
     id="defs1" />
  <g
     inkscape:label="Calque 1"
     inkscape:groupmode="layer"
     id="layer1"
     style="opacity:1"
     transform="translate(-1.1952894,-21.022369)">
    <path
       d="m 19.589097,30.747295 c 8.318545,-4.173003 17.485736,-7.370256 26.909152,-7.093752 7.599555,0.16882 15.147217,3.626474 19.808015,9.707582 -4.296575,6.573011 -12.409748,9.780701 -20.072197,9.584318 C 36.893277,42.751252 27.699856,38.861094 19.597751,34.48843 17.858414,35.207343 15.945163,36.358266 13.96716,37.148423 10.924196,38.922384 7.5347054,40.20092 4.8832264,42.576735 3.8471654,41.563506 2.6156414,40.668995 1.7632824,39.53357 6.4359284,37.321968 11.835835,35.174336 16.236836,32.440313 11.535235,29.184749 6.4575584,26.652233 1.1952894,24.432106 l 3.507319,-3.409735 c 4.76713,3.549414 9.6301636,6.935044 14.8864886,9.724924 z m 22.120322,-3.803694 c -6.080121,0.83866 -12.594585,2.979378 -17.993551,5.893325 2.199622,1.534104 4.713234,2.179004 6.460051,3.33564 7.115532,3.097644 15.222836,4.913958 22.886621,2.88876 3.31416,-0.956269 6.675251,-2.532744 8.903652,-5.232885 -3.880181,-5.34184 -10.883281,-7.539693 -17.284184,-7.087909 -0.992416,0.03547 -1.986481,0.08069 -2.972589,0.203069 z"
       id="path2396"
       style="fill:#4f46e5;fill-opacity:1;stroke-width:0.271295" />
  </g>
</svg>
